<svg width="30" height="24" viewBox="0 0 30 24" fill="white" xmlns="http://www.w3.org/2000/svg">
<path fill-rule="evenodd" clip-rule="evenodd" d="M18.9055 3.26777L15.6377 0L12.37 3.26777L15.6377 6.53553L18.9055 3.26777ZM20.4481 4.18765L20.1062 3.7603L19.7114 4.1393L15.3847 8.29274L11.4186 4.15406L11.0652 3.78528L10.7041 4.14645L8.20408 6.64645L8.91118 7.35355L11.05 5.21472L15.009 9.34595L15.3552 9.70726L15.7162 9.3607L20.0091 5.2397L21.6672 7.31235L22.4481 6.68765L20.4481 4.18765ZM0.73994 5.66366L15.357 21.7424L28.9887 5.67651L29.7512 6.32349L15.7512 22.8235L15.3829 23.2576L15 22.8363L0 6.33634L0.73994 5.66366Z" fill=""/>
</svg>
