<svg width="20" height="20" viewBox="0 0 20 20" fill="white" xmlns="http://www.w3.org/2000/svg">
<path fill-rule="evenodd" clip-rule="evenodd" d="M9 0H11V7H9V0ZM9 13H11V20H9V13ZM7 11V9H0V11H7ZM20 9V11H13V9H20ZM0.952377 8.00002C1.6623 4.45498 4.45496 1.66232 8 0.952393V3.00453C5.562 3.64247 3.64245 5.56202 3.00452 8.00002H0.952377ZM12 1.05364V3.13736C14.2244 3.88179 15.951 5.71274 16.5495 8.00002H18.6016C17.9217 4.60504 15.3317 1.90009 12 1.05364ZM12 16.4166C14.0778 15.7213 15.7212 14.0778 16.4166 12H18.5003C17.6913 15.1845 15.1844 17.6913 12 18.5004L12 16.4166ZM8 16.5495V18.6016C4.60503 17.9217 1.90008 15.3317 1.05363 12H3.13735C3.88178 14.2244 5.71273 15.951 8 16.5495Z" fill=""/>
</svg>
