<svg width="41" height="32" viewBox="0 0 41 32" fill="none" xmlns="http://www.w3.org/2000/svg">
<path fill-rule="evenodd" clip-rule="evenodd" d="M22.888 2.73495C22.888 4.24542 21.6635 5.46989 20.1531 5.46989C18.6426 5.46989 17.4181 4.24542 17.4181 2.73495C17.4181 1.22448 18.6426 0 20.1531 0C21.6635 0 22.888 1.22448 22.888 2.73495ZM16.3241 9.84582C16.3241 7.73116 18.0384 6.0169 20.1531 6.0169C22.2677 6.0169 23.982 7.73116 23.982 9.84582H16.3241ZM39.2122 24.8891C39.2122 26.3996 37.9877 27.6241 36.4772 27.6241C34.9667 27.6241 33.7423 26.3996 33.7423 24.8891C33.7423 23.3787 34.9667 22.1542 36.4772 22.1542C37.9877 22.1542 39.2122 23.3787 39.2122 24.8891ZM32.6483 32L40.3061 32C40.3061 29.8854 38.5919 28.1711 36.4772 28.1711C34.3625 28.1711 32.6483 29.8854 32.6483 32ZM3.82893 27.6241C5.3394 27.6241 6.56388 26.3996 6.56388 24.8891C6.56388 23.3787 5.3394 22.1542 3.82893 22.1542C2.31847 22.1542 1.09399 23.3787 1.09399 24.8891C1.09399 26.3996 2.31847 27.6241 3.82893 27.6241ZM0 32C0 29.8854 1.71427 28.1711 3.82892 28.1711C5.94358 28.1711 7.65785 29.8854 7.65785 32L0 32ZM20.9882 12.8261C20.9882 13.2911 20.716 13.6926 20.3222 13.8798V20.698L27.3176 24.6954C27.5066 24.5636 27.7364 24.4862 27.9842 24.4862C28.6282 24.4862 29.1503 25.0083 29.1503 25.6522C29.1503 26.2962 28.6282 26.8182 27.9842 26.8182C27.3403 26.8182 26.8182 26.2962 26.8182 25.6522C26.8182 25.6224 26.8193 25.5929 26.8215 25.5637L19.8064 21.5551L11.6599 25.6284L11.6601 25.6522C11.6601 26.2962 11.1381 26.8182 10.4941 26.8182C9.85012 26.8182 9.32808 26.2962 9.32808 25.6522C9.32808 25.0083 9.85012 24.4862 10.4941 24.4862C10.7652 24.4862 11.0147 24.5787 11.2127 24.7339L19.3222 20.6792V13.8798C18.9284 13.6926 18.6562 13.2911 18.6562 12.8261C18.6562 12.1821 19.1782 11.6601 19.8222 11.6601C20.4661 11.6601 20.9882 12.1821 20.9882 12.8261Z" fill="white"/>
</svg>
