<svg width="34" height="26" viewBox="0 0 34 26" fill="none" xmlns="http://www.w3.org/2000/svg">
<path d="M25.6577 15.9398C28.6787 15.9398 31.1276 13.4908 31.1276 10.4699C31.1276 7.44895 28.6787 5 25.6577 5C22.6368 5 20.1879 7.44895 20.1879 10.4699C20.1879 13.4908 22.6368 15.9398 25.6577 15.9398Z" fill="white"/>
<path d="M33.3156 24.6917L17.9999 24.6917C17.9999 20.4624 21.4284 17.0338 25.6577 17.0338C29.887 17.0338 33.3156 20.4623 33.3156 24.6917Z" fill="white"/>
<path d="M7.65775 15.9398C10.6787 15.9398 13.1276 13.4908 13.1276 10.4699C13.1276 7.44895 10.6787 5 7.65775 5C4.63681 5 2.18785 7.44895 2.18785 10.4699C2.18785 13.4908 4.63681 15.9398 7.65775 15.9398Z" fill="white"/>
<path d="M15.3156 24.6917L-0.00012207 24.6917C-0.00012207 20.4624 3.42841 17.0338 7.65773 17.0338C11.887 17.0338 15.3156 20.4623 15.3156 24.6917Z" fill="white"/>
<path d="M15.9999 14.3333C19.9448 14.3333 23.1428 11.3485 23.1428 7.66665C23.1428 3.98476 19.9448 1 15.9999 1C12.055 1 8.85705 3.98476 8.85705 7.66665C8.85705 11.3485 12.055 14.3333 15.9999 14.3333Z" fill="white"/>
<path d="M25.9999 25L5.99988 25C5.99988 19.8454 10.477 15.6667 15.9999 15.6667C21.5227 15.6667 25.9999 19.8453 25.9999 25Z" fill="white"/>
<path d="M25.9999 25.5H26.4999V25C26.4999 19.5373 21.7658 15.1667 15.9999 15.1667C10.2339 15.1667 5.49988 19.5373 5.49988 25V25.5H5.99988L25.9999 25.5ZM15.9999 14.8333C20.1879 14.8333 23.6428 11.6566 23.6428 7.66665C23.6428 3.67668 20.1879 0.5 15.9999 0.5C11.8119 0.5 8.35705 3.67668 8.35705 7.66665C8.35705 11.6566 11.8119 14.8333 15.9999 14.8333Z" stroke="#2F363C" stroke-opacity="0.9"/>
</svg>
