<svg width="40" height="40" viewBox="0 0 40 40" fill="none" xmlns="http://www.w3.org/2000/svg">
<path fill-rule="evenodd" clip-rule="evenodd" d="M39 20C39 30.4934 30.4934 39 20 39C9.50659 39 1 30.4934 1 20C1 9.50659 9.50659 1 20 1C30.4934 1 39 9.50659 39 20ZM40 20C40 31.0457 31.0457 40 20 40C8.9543 40 0 31.0457 0 20C0 8.9543 8.9543 0 20 0C31.0457 0 40 8.9543 40 20ZM18.4474 11.3786L17.7267 13.3774C17.3434 13.509 16.9751 13.6728 16.6252 13.8658L15.1092 13.055L13.11 13L13.055 14.9992L13.8372 16.6775C13.6452 17.033 13.483 17.407 13.354 17.7961L11.4493 18.3782L10 19.7564L11.3782 21.2058L13.2567 21.8848C13.4017 22.4048 13.6053 22.9005 13.8599 23.3641L13.0207 24.9999L13 26.9998L14.9999 27.0205L16.7171 26.184C17.0926 26.3838 17.4885 26.5503 17.9007 26.6798L18.4178 28.218L19.8357 29.6286L21.2463 28.2108L21.7165 26.788C22.2842 26.6449 22.8244 26.4324 23.3274 26.1601L24.9995 27.0465L26.9989 27.0941L27.0465 25.0946L26.1892 23.2731C26.4426 22.795 26.6421 22.2841 26.7799 21.7485L28.28 21.2021L29.6547 19.7496L28.2022 18.3748L26.6842 17.9148C26.5494 17.4824 26.3738 17.0679 26.162 16.676L27 15V13H25L23.324 13.838C22.8539 13.5839 22.3515 13.382 21.8245 13.2402L21.275 11.4474L19.8955 9.9992L18.4474 11.3786ZM19 19L17 20L19 21L20 23L21 21L23 20L21 19L20 17L19 19ZM20 25.5C23.0376 25.5 25.5 23.0376 25.5 20C25.5 16.9624 23.0376 14.5 20 14.5C16.9624 14.5 14.5 16.9624 14.5 20C14.5 23.0376 16.9624 25.5 20 25.5Z" fill="white"/>
</svg>
