<svg width="20" height="20" viewBox="0 0 20 20" fill="white" xmlns="http://www.w3.org/2000/svg">
<path fill-rule="evenodd" clip-rule="evenodd" d="M7.72666 3.37741L8.44735 1.37863L9.89552 -0.000793457L11.2749 1.44737L11.8245 3.24015C12.3515 3.38205 12.8539 3.58392 13.324 3.83801L15 3H17V5L16.162 6.67603C16.3738 7.06794 16.5494 7.48236 16.6841 7.91477L18.2021 8.37478L19.6547 9.74955L18.2799 11.2021L16.7798 11.7485C16.6421 12.2841 16.4425 12.795 16.1892 13.2731L17.0464 15.0946L16.9989 17.0941L14.9994 17.0465L13.3274 16.1601C12.8244 16.4324 12.2842 16.6449 11.7165 16.788L11.2462 18.2108L9.83565 19.6286L8.41783 18.218L7.90072 16.6798C7.48845 16.5503 7.0926 16.3838 6.71711 16.184L4.99984 17.0205L2.99995 16.9998L3.02068 14.9999L3.85987 13.3641C3.60529 12.9005 3.4017 12.4048 3.25666 11.8848L1.37822 11.2058L0 9.75644L1.44931 8.37822L3.35398 7.79609C3.48295 7.40697 3.64514 7.03299 3.83719 6.67751L3.05497 4.99923L3.10996 2.99999L5.1092 3.05498L6.62513 3.86579C6.97511 3.67283 7.34337 3.50895 7.72666 3.37741ZM6.99998 10L8.99998 9L9.99998 7L11 9L13 10L11 11L9.99998 13L8.99998 11L6.99998 10ZM15.5 10C15.5 13.0376 13.0375 15.5 9.99998 15.5C6.96241 15.5 4.49998 13.0376 4.49998 10C4.49998 6.96244 6.96241 4.5 9.99998 4.5C13.0375 4.5 15.5 6.96244 15.5 10Z" fill=""/>
</svg>
