<svg width="35" height="33" viewBox="0 0 35 33" fill="none" xmlns="http://www.w3.org/2000/svg">
<path fill-rule="evenodd" clip-rule="evenodd" d="M2.5 0C0.500025 0.5 -0.631372 3.23726 0.499998 5.5C1.99999 8.5 4.83332 13.8333 6.49998 16.5L9 15C7.5 8.5 11 3.5 16 3V0H9.5H2.5ZM5.5 1L3 6H8L5.5 1Z" fill="white"/>
<path fill-rule="evenodd" clip-rule="evenodd" d="M32.5 0C34.5 0.5 35.6314 3.23726 34.5 5.5C33 8.5 30.1667 13.8333 28.5 16.5L26 15C27.5 8.5 24 3.5 19 3V0H25.5H32.5ZM29.5 1L32 6H27L29.5 1Z" fill="white"/>
<path fill-rule="evenodd" clip-rule="evenodd" d="M8 19.5L10 18C15 22 20 22 25 18L27 19.5L20 31C19 33 16 33 15 31L8 19.5ZM15 27L17.5 22L20 27H15Z" fill="white"/>
<path d="M13 9.4V14.6L16.6 17H18.4L22 14.2V9.4L18.4 7H16.6L13 9.4Z" stroke="white" stroke-width="2"/>
</svg>
