<svg width="36" height="36" viewBox="0 0 36 36" fill="none" xmlns="http://www.w3.org/2000/svg">
<path d="M30.93 7.93002L26.93 3.93002L32.93 1.93002L30.93 7.93002Z" fill="#CCCCCC"/>
<path d="M3.92999 7.93002L7.92999 3.93002L1.92999 1.93002L3.92999 7.93002Z" fill="#CCCCCC"/>
<path d="M30.93 25.93L26.93 29.93L32.93 31.93L30.93 25.93Z" fill="#CCCCCC"/>
<path d="M3.92999 25.93L7.92999 29.93L1.92999 31.93L3.92999 25.93Z" fill="#CCCCCC"/>
<path d="M13 15.29V20.57L18 23.93L23 20.1639V15.29L18 11.93L13 15.29Z" stroke="#CCCCCC" stroke-width="2"/>
<path fill-rule="evenodd" clip-rule="evenodd" d="M24.9018 12.2008L30.452 17.9482L25.3191 22.9049L28.8552 26.441L33.9252 21.5449C35.9117 19.6267 35.9669 16.4613 34.0487 14.4749L28.4379 8.66472L24.9018 12.2008ZM12.5892 10.1751L17.9482 5L23.5123 10.7619L27.0484 7.22582L21.5449 1.52674C19.6267 -0.459678 16.4613 -0.51495 14.4749 1.40328L9.05314 6.63898L12.5892 10.1751ZM7.61425 8.02848L1.52674 13.9071C-0.459678 15.8253 -0.51495 18.9906 1.40328 20.977L7.24637 27.0278L10.7824 23.4917L5 17.5038L11.1503 11.5646L7.61425 8.02848ZM12.172 24.9307L8.63591 28.4667L13.9071 33.9252C15.8253 35.9117 18.9906 35.9669 20.977 34.0487L27.4163 27.8305L23.8802 24.2944L17.5038 30.452L12.172 24.9307Z" fill="white"/>
</svg>
