<svg width="609" height="88" viewBox="0 0 609 88" fill="none" xmlns="http://www.w3.org/2000/svg">
<path d="M231.112 0.503327C240.462 -0.93336 250.278 0.721201 258.592 5.26678C266.653 9.62984 273.277 16.5954 277.216 24.8799C281.585 33.9652 282.603 44.5872 280.136 54.3614C277.793 63.8235 272.123 72.4083 264.386 78.3376C251.155 88.7595 231.766 90.2962 217.034 82.153C208.555 77.6016 201.678 70.165 197.798 61.3564C192.91 50.4164 192.846 37.445 197.609 26.4461C203.35 12.8094 216.457 2.61714 231.112 0.503327ZM233.473 15.2235C224.088 16.6425 215.833 23.3078 212.153 32.0162C208.349 40.6835 209.097 51.1936 214.166 59.1955C218.323 65.9373 225.413 70.848 233.255 72.108C241.228 73.5094 249.719 71.0423 255.795 65.7195C262.725 59.7902 266.476 50.44 265.693 41.3606C265.104 33.2586 260.947 25.4864 254.464 20.5698C248.588 16.0243 240.816 14.0164 233.473 15.2235Z" fill="white"/>
<path d="M0 2.51115C3.63882 1.52196 7.48372 2.3227 11.205 2.04008C12.5298 2.22261 14.5435 1.53959 15.2913 3.03516C15.5504 4.98411 15.3855 6.95661 15.4091 8.92322C15.4091 26.0634 15.4032 43.2094 15.4091 60.3495C30.4354 41.5725 45.444 22.7837 60.4527 3.99492C61.2358 3.0175 62.3016 2.15197 63.6146 2.12841C67.9247 1.94 72.2406 2.15196 76.5566 2.04597C78.1699 2.07541 79.9599 1.76925 81.3377 2.84088C76.3151 9.45906 70.9923 15.8476 65.8462 22.3716C50.4195 41.6844 34.9869 60.9914 19.5542 80.2983C18.4061 81.6997 17.3992 83.2423 16.0273 84.4553C14.6789 85.5681 12.8006 85.2207 11.1873 85.309C7.46017 85.1795 3.70948 85.5092 0 85.05V2.51115Z" fill="white"/>
<path d="M104.336 5.50227C105.938 3.32957 108.564 2.01067 111.267 2.06955C114.599 2.07544 117.938 2.01066 121.27 2.09899C122.419 1.97534 123.06 3.16471 122.913 4.17745C122.913 30.4971 122.913 56.8226 122.913 83.1423C123.066 84.155 122.448 85.3915 121.27 85.2619C117.143 85.3091 113.015 85.309 108.888 85.2561C107.375 85.2973 106.179 84.2315 105.331 83.0951C98.1952 74.1335 91.0235 65.2013 83.8872 56.2397C76.6213 65.2897 69.3967 74.3691 62.1485 83.4367C61.3712 84.4317 60.2466 85.2678 58.9277 85.2502C54.1996 85.3561 49.4656 85.2266 44.7316 85.3032C43.5716 85.2266 42.1173 85.5976 41.3989 84.3905C62.2544 58.0002 83.3926 31.8219 104.336 5.50227ZM92.5779 43.6805C97.4768 49.7746 102.305 55.9218 107.239 61.9806C107.275 49.7628 107.263 37.551 107.251 25.3332C102.346 31.4392 97.4591 37.5569 92.5779 43.6805Z" fill="white"/>
<path d="M141.608 4.15983C141.496 3.22951 142.002 2.08721 143.08 2.11076C147.231 2.01066 151.4 2.0519 155.557 2.09311C156.746 1.96358 157.488 3.14119 157.3 4.23048C157.323 26.2872 157.311 48.3438 157.305 70.4064C168.846 70.4476 180.387 70.3769 191.921 70.4358C192.911 70.2239 193.529 71.478 192.746 72.1433C189.743 76.0118 186.64 79.8096 183.584 83.6486C182.659 84.8969 181.093 85.4033 179.586 85.2914C167.421 85.2502 155.25 85.3385 143.086 85.2502C141.967 85.2973 141.502 84.0843 141.608 83.1481C141.608 56.8226 141.602 30.4912 141.608 4.15983Z" fill="white"/>
<path d="M295.386 4.18924C295.115 2.9763 296.093 1.87522 297.323 2.07542C318.356 2.05186 339.382 2.06367 360.408 2.06956C361.38 1.93413 362.528 2.5406 362.434 3.64755C362.498 9.34719 362.445 15.0527 362.457 20.7524C362.581 22.1125 361.862 23.3078 361.026 24.3087C354.956 31.816 348.985 39.3998 342.897 46.8953C342.597 47.4252 341.596 48.1259 342.355 48.7383C351.552 60.3024 360.826 71.8136 370.012 83.3837C370.677 83.9371 370.689 85.2561 369.599 85.2266C364.147 85.3444 358.689 85.2855 353.236 85.2561C351.099 85.2855 349.892 83.3012 348.709 81.841C340.265 71.2484 331.816 60.6616 323.343 50.0984C322.713 49.3212 321.747 48.1966 322.624 47.2368C330.603 37.1094 338.728 27.0879 346.748 16.984C334.872 16.931 322.99 17.0841 311.119 16.9074C310.907 39.1643 311.131 61.433 311.007 83.6898C311.143 84.7261 310.071 85.415 309.141 85.2737C305.019 85.2737 300.898 85.3385 296.776 85.2443C295.681 85.256 295.239 84.0254 295.38 83.1128C295.386 56.8049 295.38 30.4971 295.386 4.18924Z" fill="white"/>
<path d="M383.407 4.23048C383.218 3.17063 383.907 1.95769 385.097 2.09311C389.024 2.02246 392.963 2.06366 396.896 2.07543C398.368 1.98711 399.793 2.67604 400.659 3.87132C420.284 28.4245 439.903 52.9836 459.528 77.5368C461.218 79.8037 463.243 81.841 464.709 84.2728C464.568 84.5024 464.285 84.9617 464.144 85.1913C459.386 85.4327 454.611 85.1913 449.848 85.2973C447.969 85.3267 445.697 85.4857 444.454 83.7664C437.082 74.6222 429.781 65.4192 422.445 56.2456C415.179 65.2896 407.948 74.3691 400.706 83.4308C399.929 84.4376 398.792 85.2619 397.473 85.2561C393.364 85.3149 389.254 85.2973 385.15 85.2679C383.925 85.4386 383.213 84.2021 383.407 83.1246C383.407 56.8285 383.413 30.5266 383.407 4.23048ZM399.075 25.3745C399.057 37.5863 399.057 49.7923 399.075 62.0041C403.974 55.9041 408.849 49.7864 413.73 43.6746C408.837 37.5804 403.997 31.4392 399.075 25.3745Z" fill="white"/>
<path d="M452.603 4.25399C452.48 3.34134 452.886 2.15196 453.964 2.12841C457.879 1.96943 461.801 2.10487 465.716 2.06365C467.235 1.96355 468.825 2.46402 469.749 3.73584C484.852 22.5894 499.896 41.4901 515.011 60.3319C515.011 41.6255 515.005 22.9191 515.011 4.20688C514.758 3.02926 515.676 1.88698 516.907 2.0754C521.052 2.08129 525.197 1.98121 529.337 2.12841C530.396 2.16963 530.779 3.34723 530.661 4.25399C530.661 30.5383 530.661 56.8226 530.661 83.1069C530.785 84.0019 530.391 85.2148 529.319 85.2325C525.203 85.3503 521.076 85.2678 516.96 85.2737C515.6 85.3267 514.31 84.6731 513.509 83.5956C498.424 64.7597 483.392 45.8767 468.295 27.0526C468.277 38.0927 468.325 49.1387 468.277 60.1788C468.566 61.1621 467.165 62.0041 466.57 61.1091C462.236 55.8511 458.05 50.4694 453.775 45.1643C452.821 44.1221 452.515 42.7207 452.586 41.3488C452.609 28.9838 452.58 16.6189 452.603 4.25399Z" fill="white"/>
<path d="M541.49 3.64166C541.366 2.57004 542.508 1.95177 543.444 2.07542C560.732 2.04598 578.019 2.07545 595.306 2.06367C596.802 1.96946 598.368 2.45817 599.281 3.71821C602.343 7.53368 605.434 11.3374 608.443 15.1999C609.238 15.8476 608.643 17.1312 607.642 16.9546C598.604 17.0252 589.56 16.9546 580.516 16.984C580.474 39.0289 580.569 61.0738 580.563 83.1187C580.775 84.1726 580.05 85.3856 578.873 85.2619C574.745 85.2973 570.612 85.3149 566.49 85.2561C565.613 85.3326 564.847 84.5554 564.936 83.6898C564.789 61.4565 564.93 39.2173 564.812 16.984C557.682 16.9663 550.545 17.0076 543.421 16.9722C542.473 17.0841 541.342 16.4305 541.49 15.3589C541.431 11.4551 541.425 7.54545 541.49 3.64166Z" fill="white"/>
</svg>
