<svg width="18" height="19" viewBox="0 0 18 19" fill="none" xmlns="http://www.w3.org/2000/svg">
<circle cx="9" cy="9" r="8.5" stroke="white"/>
<path d="M12.6108 7.14453C12.6108 7.9528 12.4585 8.55371 12.1538 8.94727C11.8491 9.33659 11.4238 9.57568 10.8779 9.66455C11.6904 9.82959 12.1729 10.3459 12.3252 11.2134L12.814 14H11.4365C11.4027 13.8053 11.3625 13.5239 11.3159 13.1558C11.2736 12.7834 11.2334 12.4702 11.1953 12.2163C11.1572 11.9582 11.1064 11.6852 11.043 11.3975C10.9795 11.1097 10.8949 10.8685 10.7891 10.6738C10.6875 10.4792 10.5648 10.3353 10.4209 10.2422C10.1924 10.1449 9.81787 10.0962 9.29736 10.0962H7.33594V14H6.05371V4.54199H8.94189C9.24658 4.54199 9.50472 4.54622 9.71631 4.55469C9.93213 4.55892 10.1585 4.57161 10.3955 4.59277C10.6325 4.61393 10.8314 4.64355 10.9922 4.68164C11.153 4.71973 11.3159 4.77051 11.481 4.83398C11.6502 4.89746 11.7878 4.97575 11.8936 5.06885C12.0036 5.16195 12.1073 5.27409 12.2046 5.40527C12.3019 5.53223 12.3781 5.68034 12.4331 5.84961C12.4881 6.01465 12.5304 6.20508 12.5601 6.4209C12.5939 6.63672 12.6108 6.87793 12.6108 7.14453ZM11.3413 7.646V6.76367C11.3413 6.60286 11.3371 6.47803 11.3286 6.38916C11.3244 6.29606 11.3096 6.19873 11.2842 6.09717C11.2588 5.99137 11.2186 5.91309 11.1636 5.8623C11.1128 5.80729 11.043 5.75439 10.9541 5.70361C10.8695 5.6486 10.7573 5.61051 10.6177 5.58936C10.4823 5.5682 10.3215 5.55127 10.1353 5.53857C9.95329 5.52165 9.73324 5.51318 9.4751 5.51318H7.33594V9.08691H9.55127C9.87712 9.08691 10.1458 9.06999 10.3574 9.03613C10.569 9.00228 10.7404 8.95573 10.8716 8.89648C11.007 8.83301 11.1086 8.73991 11.1763 8.61719C11.244 8.49023 11.2884 8.35693 11.3096 8.21729C11.3307 8.0734 11.3413 7.88298 11.3413 7.646Z" fill="white"/>
</svg>
