<svg width="25" height="25" viewBox="0 0 25 25" fill="none" xmlns="http://www.w3.org/2000/svg">
<path fill-rule="evenodd" clip-rule="evenodd" d="M16.9998 10C16.9998 13.866 13.8657 17 9.99976 17C6.13379 17 2.99976 13.866 2.99976 10C2.99976 6.13403 6.13379 3 9.99976 3C13.8657 3 16.9998 6.13403 16.9998 10ZM15.0958 18.6059C13.6034 19.4915 11.861 20 9.99976 20C4.47693 20 -0.000244141 15.5228 -0.000244141 10C-0.000244141 4.47714 4.47693 0 9.99976 0C15.5226 0 19.9998 4.47714 19.9998 10C19.9998 11.8474 19.4988 13.5778 18.6253 15.0628L23.8431 20.485C24.2261 20.8829 24.2139 21.516 23.8159 21.8989L21.6543 23.9791C21.2563 24.3621 20.6233 24.3499 20.2403 23.952L15.0958 18.6059Z" fill="white"/>
</svg>
