<svg width="18" height="18" viewBox="0 0 18 18" fill="none" xmlns="http://www.w3.org/2000/svg">
<path d="M13.925 8.86601V5.02801C13.925 4.96901 13.85 4.94201 13.813 4.98901L9.62098 10.229C9.61356 10.2382 9.60891 10.2494 9.60755 10.2611C9.60619 10.2729 9.6082 10.2848 9.61332 10.2955C9.61845 10.3061 9.62649 10.3151 9.63652 10.3214C9.64654 10.3277 9.65815 10.331 9.66998 10.331H12.699C12.781 10.331 12.858 10.294 12.909 10.23L13.866 9.03401C13.904 8.98601 13.925 8.92701 13.925 8.86601ZM4.11698 9.03401L7.26598 12.97C7.31698 13.034 7.39398 13.071 7.47598 13.071H10.505C10.558 13.071 10.587 13.01 10.554 12.969L4.16998 4.98901C4.13298 4.94301 4.05798 4.96901 4.05798 5.02801V8.86601C4.05798 8.92701 4.07898 8.98601 4.11698 9.03401Z" fill="white"/>
<circle cx="9" cy="9" r="8.5" stroke="white"/>
</svg>
