<svg width="32" height="32" viewBox="0 0 32 32" fill="none" xmlns="http://www.w3.org/2000/svg">
<path d="M31 1H1V31H31V1Z" stroke="white" stroke-width="2"/>
<path d="M23.88 15.7856V9.64483C23.88 9.55043 23.76 9.50723 23.7008 9.58243L16.9936 17.9664C16.9817 17.9812 16.9743 17.999 16.9721 18.0178C16.9699 18.0366 16.9731 18.0557 16.9813 18.0728C16.9895 18.0898 17.0024 18.1042 17.0184 18.1143C17.0345 18.1244 17.053 18.1297 17.072 18.1296H21.9184C22.0496 18.1296 22.1728 18.0704 22.2544 17.968L23.7856 16.0544C23.8464 15.9776 23.88 15.8832 23.88 15.7856ZM8.18717 16.0544L13.2256 22.352C13.3072 22.4544 13.4304 22.5136 13.5616 22.5136H18.408C18.4928 22.5136 18.5392 22.416 18.4864 22.3504L8.27197 9.58243C8.21277 9.50883 8.09277 9.55043 8.09277 9.64483V15.7856C8.09277 15.8832 8.12637 15.9776 8.18717 16.0544Z" fill="white"/>
</svg>
