<svg width="16" height="16" viewBox="0 0 16 16" fill="none" xmlns="http://www.w3.org/2000/svg">
<path d="M15.88 7.78563V1.64483C15.88 1.55043 15.76 1.50723 15.7008 1.58243L8.99357 9.96643C8.9817 9.98119 8.97425 9.999 8.97208 10.0178C8.96991 10.0366 8.97311 10.0557 8.98131 10.0728C8.98952 10.0898 9.00238 10.1042 9.01842 10.1143C9.03447 10.1244 9.05303 10.1297 9.07197 10.1296H13.9184C14.0496 10.1296 14.1728 10.0704 14.2544 9.96803L15.7856 8.05443C15.8464 7.97763 15.88 7.88323 15.88 7.78563ZM0.187173 8.05443L5.22557 14.352C5.30717 14.4544 5.43037 14.5136 5.56157 14.5136H10.408C10.4928 14.5136 10.5392 14.416 10.4864 14.3504L0.271973 1.58243C0.212773 1.50883 0.0927734 1.55043 0.0927734 1.64483V7.78563C0.0927734 7.88323 0.126373 7.97763 0.187173 8.05443Z"/>
</svg>
