<svg width="24" height="24" viewBox="0 0 24 24" fill="none" xmlns="http://www.w3.org/2000/svg">
<path fill-rule="evenodd" clip-rule="evenodd" d="M1.70706 0.292908L0.292847 1.70712L3.58574 5.00001H2.99995C1.89538 5.00001 0.999953 5.89544 0.999953 7.00001V17C0.999953 18.1046 1.89538 19 2.99995 19H15C15.7021 19 16.3197 18.6382 16.6766 18.0908L22.2928 23.7071L23.7071 22.2929L1.70706 0.292908ZM15 16.4142L5.58574 7.00001H2.99995V17H15V16.4142ZM17 8.38198L23 5.38198V18.3701L21 16.3701V8.61805L17 10.618V13.0008L15 11.0008V7.00001H10.9992L8.99917 5.00001H15C16.1045 5.00001 17 5.89544 17 7.00001V8.38198Z" fill="white"/>
</svg>
